<svg width="1728" height="160" viewBox="0 0 1728 160" fill="none" xmlns="http://www.w3.org/2000/svg">
<rect width="1728" height="160" fill="#333333"/>
<path d="M282.877 81.696L280.213 84.768V89.16H275.845V69.6H280.213V78.816L288.037 69.6H293.389L285.709 78.456L293.797 89.16H288.349L282.877 81.696ZM302.18 69.12C303.62 69.12 304.924 69.392 306.092 69.936C307.26 70.48 308.188 71.24 308.876 72.216C309.58 73.176 309.964 74.272 310.028 75.504H305.516C305.388 74.64 305.012 73.968 304.388 73.488C303.764 73.008 302.932 72.768 301.892 72.768C300.9 72.768 300.124 72.952 299.564 73.32C299.004 73.672 298.724 74.152 298.724 74.76C298.724 75.24 298.9 75.632 299.252 75.936C299.604 76.24 300.14 76.512 300.86 76.752C301.596 76.976 302.66 77.232 304.052 77.52C306.212 77.968 307.756 78.712 308.684 79.752C309.628 80.776 310.1 82.064 310.1 83.616C310.1 84.832 309.748 85.896 309.044 86.808C308.356 87.72 307.412 88.416 306.212 88.896C305.012 89.392 303.676 89.64 302.204 89.64C300.604 89.64 299.164 89.36 297.884 88.8C296.62 88.256 295.612 87.472 294.86 86.448C294.124 85.424 293.724 84.224 293.66 82.848H298.148C298.276 83.792 298.724 84.552 299.492 85.128C300.276 85.688 301.284 85.968 302.516 85.968C303.412 85.968 304.148 85.768 304.724 85.368C305.316 84.968 305.612 84.448 305.612 83.808C305.612 83.296 305.452 82.872 305.132 82.536C304.828 82.2 304.332 81.912 303.644 81.672C302.972 81.432 302.028 81.2 300.812 80.976C298.62 80.56 296.98 79.864 295.892 78.888C294.804 77.912 294.26 76.536 294.26 74.76C294.26 73.608 294.604 72.608 295.292 71.76C295.996 70.912 296.948 70.264 298.148 69.816C299.348 69.352 300.692 69.12 302.18 69.12ZM323.76 69.6V89.16H319.392V69.6H323.76ZM327.22 69.6H330.868L340.636 81.36V69.36H345.004V88.92H341.356L331.588 77.16V89.16H327.22V69.6ZM364.439 73.464H358.079V89.16H353.711V73.464H347.351V69.6H364.439V73.464ZM366.783 69.6H381.327V73.392H371.151V77.376H380.487V81.168H371.151V85.368H381.543V89.16H366.783V69.6ZM396.118 89.16L392.326 82.992H388.846V89.16H384.478V69.6H392.35C393.982 69.6 395.39 69.88 396.574 70.44C397.758 70.984 398.662 71.76 399.286 72.768C399.91 73.776 400.222 74.952 400.222 76.296C400.222 77.64 399.91 78.816 399.286 79.824C398.678 80.816 397.798 81.584 396.646 82.128L401.182 89.16H396.118ZM388.846 79.128H392.158C393.326 79.128 394.23 78.888 394.87 78.408C395.526 77.912 395.854 77.208 395.854 76.296C395.854 75.384 395.526 74.688 394.87 74.208C394.23 73.712 393.326 73.464 392.158 73.464H388.846V79.128ZM407.573 69.6V89.16H403.205V69.6H407.573ZM420.729 89.64C418.729 89.64 416.921 89.192 415.305 88.296C413.705 87.416 412.449 86.2 411.537 84.648C410.625 83.08 410.169 81.32 410.169 79.368C410.169 77.416 410.625 75.664 411.537 74.112C412.449 72.544 413.705 71.32 415.305 70.44C416.921 69.544 418.729 69.096 420.729 69.096C422.729 69.096 424.529 69.544 426.129 70.44C427.745 71.32 429.009 72.544 429.921 74.112C430.833 75.664 431.289 77.416 431.289 79.368C431.289 81.32 430.833 83.08 429.921 84.648C429.009 86.2 427.745 87.416 426.129 88.296C424.529 89.192 422.729 89.64 420.729 89.64ZM420.729 85.704C421.897 85.704 422.953 85.432 423.897 84.888C424.841 84.344 425.577 83.592 426.105 82.632C426.649 81.656 426.921 80.568 426.921 79.368C426.921 78.152 426.649 77.064 426.105 76.104C425.577 75.144 424.841 74.392 423.897 73.848C422.953 73.304 421.897 73.032 420.729 73.032C419.561 73.032 418.505 73.304 417.561 73.848C416.617 74.392 415.873 75.144 415.329 76.104C414.801 77.064 414.537 78.152 414.537 79.368C414.537 80.568 414.801 81.656 415.329 82.632C415.873 83.592 416.617 84.344 417.561 84.888C418.505 85.432 419.561 85.704 420.729 85.704ZM445.524 89.16L441.732 82.992H438.252V89.16H433.884V69.6H441.756C443.388 69.6 444.796 69.88 445.98 70.44C447.164 70.984 448.068 71.76 448.692 72.768C449.316 73.776 449.628 74.952 449.628 76.296C449.628 77.64 449.316 78.816 448.692 79.824C448.084 80.816 447.204 81.584 446.052 82.128L450.588 89.16H445.524ZM438.252 79.128H441.564C442.732 79.128 443.636 78.888 444.276 78.408C444.932 77.912 445.26 77.208 445.26 76.296C445.26 75.384 444.932 74.688 444.276 74.208C443.636 73.712 442.732 73.464 441.564 73.464H438.252V79.128Z" fill="#999999"/>
<path d="M607.112 48.978V61.564H608.26V48.978H607.112ZM601.638 49.944C599.776 49.944 598.446 51.652 598.446 54.326C598.446 57 599.776 58.708 601.638 58.708C603.5 58.708 604.83 57 604.83 54.326C604.83 51.652 603.5 49.944 601.638 49.944ZM601.638 50.98C602.856 50.98 603.724 52.296 603.724 54.326C603.724 56.37 602.856 57.686 601.638 57.686C600.406 57.686 599.538 56.37 599.538 54.326C599.538 52.296 600.406 50.98 601.638 50.98ZM616.533 60.64C614.559 60.64 613.397 60.15 613.397 59.296C613.397 58.442 614.559 57.952 616.533 57.952C618.493 57.952 619.669 58.442 619.669 59.296C619.669 60.15 618.493 60.64 616.533 60.64ZM616.533 57.056C613.845 57.056 612.235 57.854 612.235 59.296C612.235 60.738 613.845 61.522 616.533 61.522C619.235 61.522 620.831 60.738 620.831 59.296C620.831 57.854 619.235 57.056 616.533 57.056ZM614.797 53.724C615.315 53.808 615.903 53.864 616.533 53.864C617.177 53.864 617.765 53.808 618.283 53.724V55.194H614.797V53.724ZM613.299 51.54C613.299 50.63 614.531 50.098 616.533 50.098C618.535 50.098 619.767 50.63 619.767 51.54C619.767 52.436 618.535 52.982 616.533 52.982C614.531 52.982 613.299 52.436 613.299 51.54ZM619.417 55.194V53.416C620.383 53.024 620.943 52.38 620.943 51.54C620.943 50.07 619.263 49.202 616.533 49.202C613.817 49.202 612.123 50.07 612.123 51.54C612.123 52.394 612.669 53.024 613.663 53.43V55.194H610.849V56.118H622.217V55.194H619.417ZM625.1 52.702C625.1 51.512 625.996 50.7 627.256 50.7C628.502 50.7 629.412 51.512 629.412 52.702C629.412 53.878 628.502 54.704 627.256 54.704C625.996 54.704 625.1 53.878 625.1 52.702ZM630.532 52.702C630.532 50.938 629.146 49.734 627.256 49.734C625.352 49.734 623.98 50.938 623.98 52.702C623.98 54.452 625.352 55.67 627.256 55.67C629.146 55.67 630.532 54.452 630.532 52.702ZM625.324 57.966H632.338V61.536H633.486V57.028H625.324V57.966ZM635.306 51.848V50.896H633.486V48.992H632.338V56.44H633.486V54.522H635.306V53.584H633.486V51.848H635.306ZM643.215 54.34C643.537 52.688 643.537 51.442 643.537 50.616V49.958H637.293V50.896H642.417C642.417 51.694 642.375 52.772 642.081 54.214L643.215 54.34ZM644.405 55.096C643.131 55.264 641.703 55.376 640.331 55.432V52.758H639.197V55.474C638.245 55.488 637.335 55.502 636.537 55.502L636.649 56.44C638.875 56.44 641.885 56.37 644.489 55.936L644.405 55.096ZM639.603 57.574H638.455V61.256H646.799V60.318H639.603V57.574ZM646.393 53.066V48.978H645.245V58.442H646.393V54.018H648.185V53.066H646.393Z" fill="#999999"/>
<rect x="659" y="49" width="1" height="10" fill="#999999"/>
<path d="M671.702 50.602V51.54H675.468C675.3 54.144 674.11 56.412 671.226 58.022L671.898 58.848C675.468 56.832 676.602 53.836 676.602 50.602H671.702ZM680.774 48.978V54.032H679.066V49.314H677.988V60.906H679.066V54.97H680.774V61.536H681.88V48.978H680.774ZM694.409 48.992H693.261V58.162H694.409V48.992ZM685.519 52.94C685.519 51.722 686.443 50.854 687.661 50.854C688.907 50.854 689.831 51.722 689.831 52.94C689.831 54.186 688.907 55.054 687.661 55.054C686.443 55.054 685.519 54.186 685.519 52.94ZM690.951 52.94C690.951 51.134 689.537 49.86 687.661 49.86C685.799 49.86 684.399 51.134 684.399 52.94C684.399 54.76 685.799 56.048 687.661 56.048C689.537 56.048 690.951 54.76 690.951 52.94ZM687.479 60.318V57.224H686.331V61.256H694.787V60.318H687.479ZM703.69 52.24V53.178H706.168V56.468H707.33V48.992H706.168V52.24H703.69ZM704.39 55.096C702.57 54.452 701.338 52.87 701.338 51.26V50.826H704.096V49.902H697.39V50.826H700.19V51.26C700.19 53.066 698.902 54.76 697.026 55.446L697.628 56.356C699.098 55.796 700.26 54.62 700.792 53.164C701.338 54.452 702.416 55.488 703.816 55.992L704.39 55.096ZM703.186 60.64C701.296 60.64 700.148 60.108 700.148 59.198C700.148 58.288 701.296 57.742 703.186 57.742C705.076 57.742 706.224 58.288 706.224 59.198C706.224 60.108 705.076 60.64 703.186 60.64ZM703.186 56.86C700.61 56.86 699 57.714 699 59.198C699 60.682 700.61 61.536 703.186 61.536C705.762 61.536 707.372 60.682 707.372 59.198C707.372 57.714 705.762 56.86 703.186 56.86ZM712.341 53.052H718.753V55.362H712.341V53.052ZM716.121 58.988V56.286H719.873V49.874H718.753V52.114H712.341V49.874H711.207V56.286H714.959V58.988H709.863V59.926H721.245V58.988H716.121ZM723.792 55.166C725.262 54.802 726.382 53.962 726.914 52.856C727.46 53.878 728.552 54.634 729.994 54.984L730.456 54.088C728.678 53.682 727.46 52.604 727.46 51.344V51.316H730.232V50.406H727.46V49.006H726.312V50.406H723.554V51.316H726.326V51.344C726.326 52.688 725.108 53.836 723.302 54.256L723.792 55.166ZM731.002 55.628C728.258 56.02 725.108 56.034 722.714 56.034L722.868 57C723.918 57 725.108 56.986 726.34 56.944V61.172H727.488V56.874C728.678 56.804 729.91 56.678 731.086 56.482L731.002 55.628ZM731.898 48.992V61.55H733.046V48.992H731.898ZM744.399 60.444H738.225V58.722H744.399V60.444ZM744.399 57.826H738.225V56.174H737.091V61.368H745.533V56.174H744.399V57.826ZM745.211 54.102C745.547 52.548 745.547 51.428 745.547 50.462V49.552H737.063V50.49H744.413C744.413 51.442 744.413 52.562 744.063 54.102H735.607V55.04H747.017V54.102H745.211ZM753.708 54.634H750.152V52.562H753.708V54.634ZM754.828 49.776H753.708V51.666H750.152V49.776H749.018V55.558H754.828V49.776ZM754.254 60.626C752.378 60.626 751.258 60.094 751.258 59.198C751.258 58.302 752.378 57.784 754.254 57.784C756.102 57.784 757.236 58.302 757.236 59.198C757.236 60.094 756.102 60.626 754.254 60.626ZM754.254 56.86C751.692 56.86 750.11 57.714 750.11 59.198C750.11 60.682 751.692 61.536 754.254 61.536C756.802 61.536 758.384 60.682 758.384 59.198C758.384 57.714 756.802 56.86 754.254 56.86ZM758.244 52.142V48.978H757.096V56.538H758.244V53.094H760.106V52.142H758.244ZM769.135 55.068C767.273 54.522 765.929 53.108 765.929 51.526V51.372H768.771V50.448H765.943V48.894H764.795V50.448H761.939V51.372H764.795V51.526C764.795 53.206 763.479 54.732 761.617 55.334L762.163 56.216C763.675 55.74 764.837 54.69 765.383 53.332C765.971 54.564 767.133 55.516 768.603 55.964L769.135 55.068ZM764.683 57.98H770.563V60.444H764.683V57.98ZM763.563 61.368H771.683V57.07H763.563V61.368ZM770.535 48.978V56.426H771.683V48.978H770.535Z" fill="#999999"/>
<rect x="784" y="49" width="1" height="10" fill="#999999"/>
<path d="M804.915 48.978V61.564H806.063V48.978H804.915ZM799.441 49.944C797.579 49.944 796.249 51.652 796.249 54.326C796.249 57 797.579 58.708 799.441 58.708C801.303 58.708 802.633 57 802.633 54.326C802.633 51.652 801.303 49.944 799.441 49.944ZM799.441 50.98C800.659 50.98 801.527 52.296 801.527 54.326C801.527 56.37 800.659 57.686 799.441 57.686C798.209 57.686 797.341 56.37 797.341 54.326C797.341 52.296 798.209 50.98 799.441 50.98ZM812.824 57.252H810.192V51.344H812.824V57.252ZM815.75 53.71H813.888V50.434H809.114V58.162H813.888V54.662H815.75V60.906H816.842V49.258H815.75V53.71ZM818.242 48.978V61.522H819.334V48.978H818.242ZM831.849 48.978H830.701V55.418H831.849V48.978ZM822.945 52.226C822.945 51.134 823.855 50.364 825.073 50.364C826.305 50.364 827.201 51.134 827.201 52.226C827.201 53.304 826.305 54.074 825.073 54.074C823.855 54.074 822.945 53.304 822.945 52.226ZM828.321 52.226C828.321 50.56 826.949 49.426 825.073 49.426C823.197 49.426 821.839 50.56 821.839 52.226C821.839 53.878 823.197 54.998 825.073 54.998C826.949 54.998 828.321 53.878 828.321 52.226ZM824.877 60.458V59.072H831.849V56.034H823.715V56.944H830.715V58.218H823.743V61.368H832.269V60.458H824.877ZM843.216 53.654H836.986V50.602H843.216V53.654ZM844.35 49.678H835.866V54.564H844.35V49.678ZM845.806 56.272H834.41V57.196H839.506V61.522H840.654V57.196H845.806V56.272ZM854.569 54.48C852.931 54.802 851.503 54.9 849.025 54.9V50.994H853.435V50.07H847.877V55.838H848.857C851.489 55.838 852.973 55.754 854.695 55.404L854.569 54.48ZM850.383 57.154H849.235V61.256H857.607V60.318H850.383V57.154ZM857.047 52.702V48.978H855.899V58.064H857.047V53.654H858.909V52.702H857.047ZM870.989 53.766C868.707 53.43 866.467 51.876 866.467 50.126V49.426H865.263V50.126C865.263 51.918 863.051 53.43 860.769 53.766L861.231 54.69C863.191 54.354 865.081 53.276 865.865 51.75C866.677 53.262 868.567 54.354 870.513 54.69L870.989 53.766ZM871.535 56.048H860.195V57H865.263V61.55H866.411V57H871.549L871.535 56.048ZM880.746 54.704C878.898 54.13 877.582 52.66 877.582 51.008V50.728H880.424V49.79H873.536V50.728H876.406V51.008C876.406 52.73 875.118 54.298 873.214 54.9L873.802 55.81C875.3 55.292 876.462 54.2 877.008 52.814C877.582 54.116 878.744 55.124 880.186 55.586L880.746 54.704ZM882.23 60.43H876.406V58.806H882.23V60.43ZM882.23 57.91H876.406V56.384H875.272V61.368H883.364V56.384H882.23V57.91ZM882.216 48.978V55.782H883.364V48.978H882.216ZM886.485 50.336V51.26H891.063C890.853 54.2 889.299 56.594 885.925 58.246L886.555 59.142C890.727 57.084 892.211 53.906 892.211 50.336H886.485ZM895.123 48.992V54.018H892.183V54.956H895.123V61.536H896.271V48.992H895.123ZM907.61 53.976H901.38V52.128H907.61V53.976ZM908.758 49.482H907.61V51.204H901.38V49.482H900.246V54.914H908.758V49.482ZM910.2 56.426H898.804V57.35H903.9V61.55H905.048V57.35H910.2V56.426Z" fill="#999999"/>
<rect x="921" y="49" width="1" height="10" fill="#999999"/>
<path d="M937.198 50.07H936.064V52.324C936.064 54.606 934.636 57.014 932.83 57.938L933.516 58.862C934.93 58.106 936.092 56.538 936.638 54.704C937.212 56.426 938.346 57.896 939.676 58.61L940.39 57.7C938.626 56.818 937.198 54.536 937.198 52.324V50.07ZM944.716 54.074H942.644V48.992H941.496V61.536H942.644V55.026H944.716V54.074ZM954.991 48.978V61.564H956.139V48.978H954.991ZM949.517 49.944C947.655 49.944 946.325 51.652 946.325 54.326C946.325 57 947.655 58.708 949.517 58.708C951.379 58.708 952.709 57 952.709 54.326C952.709 51.652 951.379 49.944 949.517 49.944ZM949.517 50.98C950.735 50.98 951.603 52.296 951.603 54.326C951.603 56.37 950.735 57.686 949.517 57.686C948.285 57.686 947.417 56.37 947.417 54.326C947.417 52.296 948.285 50.98 949.517 50.98ZM968.822 55.754H961.36V53.766H968.416V52.856H961.36V50.994H968.696V50.07H960.198V56.678H968.822V55.754ZM958.728 58.974V59.912H970.124V58.974H958.728ZM975.961 54.256H973.259V50.77H975.961V54.256ZM977.025 49.86H972.181V55.152H977.025V49.86ZM981.085 60.43H975.121V58.806H981.085V60.43ZM981.085 57.896H975.121V56.384H973.973V61.368H982.219V56.384H981.085V57.896ZM981.113 48.992V51.862H979.517V49.23H978.425V55.74H979.517V52.814H981.113V55.824H982.219V48.992H981.113Z" fill="#999999"/>
<path d="M602.138 81.056V83.31C602.138 85.592 603.566 87.874 605.386 88.742L604.714 89.652C603.286 88.938 602.138 87.44 601.564 85.676C601.018 87.538 599.856 89.12 598.442 89.876L597.742 88.966C599.562 88.056 600.99 85.634 600.99 83.31V81.056H602.138ZM606.94 79.978H608.088V92.55H606.94V85.172H604.028V84.234H606.94V79.978ZM616.291 80.986C614.233 80.986 613.057 81.462 613.057 82.302C613.057 83.142 614.233 83.618 616.291 83.618C618.349 83.618 619.525 83.142 619.525 82.302C619.525 81.462 618.349 80.986 616.291 80.986ZM616.291 84.472C613.533 84.472 611.881 83.716 611.881 82.302C611.881 80.888 613.533 80.118 616.291 80.118C619.063 80.118 620.701 80.888 620.701 82.302C620.701 83.716 619.063 84.472 616.291 84.472ZM621.961 86.222H616.865V87.398H620.519V90.226H613.141V91.5H620.897V92.396H612.021V89.386H619.385V88.266H611.993V87.398H615.717V86.222H610.621V85.298H621.961V86.222ZM633.524 84.528V85.424H624.984V80.314H633.454V81.21H626.132V82.4H633.118V83.268H626.132V84.528H633.524ZM624.76 89.666V88.756H633.384V92.55H632.236V89.666H624.76ZM623.486 86.614H634.854V87.538H623.486V86.614ZM645.563 82.666H642.665V84.052H645.563V82.666ZM641.531 85.116V83.254H638.143V85.116H641.531ZM642.665 84.948V86.04H637.009V80.566H638.143V82.358H641.531V80.58H642.665V81.77H645.563V79.992H646.711V86.544H645.563V84.948H642.665ZM639.781 91.458H647.187V92.368H638.647V89.26H645.577V88.056H638.619V87.146H646.711V90.128H639.781V91.458ZM653.71 81.07V83.324C653.71 85.62 655.208 87.93 657.07 88.77L656.384 89.694C654.956 88.994 653.752 87.51 653.15 85.718C652.576 87.608 651.372 89.176 649.902 89.932L649.202 88.994C651.05 88.112 652.576 85.704 652.576 83.324V81.07H653.71ZM658.386 79.978H659.534V92.564H658.386V79.978ZM665.827 80.916H671.623C671.623 84.108 669.397 86.446 665.757 87.524L665.295 86.6C668.277 85.718 670.167 84.01 670.377 81.84H665.827V80.916ZM671.077 91.612C672.883 91.612 674.031 91.038 674.031 90.086C674.031 89.12 672.883 88.546 671.077 88.546C669.271 88.546 668.123 89.12 668.123 90.086C668.123 91.038 669.271 91.612 671.077 91.612ZM671.077 87.65C673.555 87.65 675.165 88.56 675.165 90.086C675.165 91.598 673.555 92.522 671.077 92.522C668.599 92.522 666.989 91.598 666.989 90.086C666.989 88.56 668.599 87.65 671.077 87.65ZM675.011 83.226H676.873V84.178H675.011V87.482H673.863V79.978H675.011V83.226ZM685.468 84.626L685.608 85.564C683.494 85.984 681.618 86.124 679.742 86.124H678.762V80.608H679.896V85.158C681.674 85.144 683.466 85.018 685.468 84.626ZM681.1 88.686V91.43H686.77V88.686H681.1ZM679.98 92.354V87.762H687.89V92.354H679.98ZM689.752 82.862V83.814H687.89V87.076H686.742V79.978H687.89V82.862H689.752ZM702.393 86.194V87.132H697.269V92.55H696.107V87.132H691.039V86.194H699.369C699.761 84.388 699.761 83.058 699.761 81.882V81.714H692.453V80.79H700.881V81.882C700.881 83.058 700.881 84.388 700.531 86.194H702.393ZM707.595 80.916H713.391C713.391 84.108 711.165 86.446 707.525 87.524L707.063 86.6C710.045 85.718 711.935 84.01 712.145 81.84H707.595V80.916ZM712.845 91.612C714.651 91.612 715.799 91.038 715.799 90.086C715.799 89.12 714.651 88.546 712.845 88.546C711.039 88.546 709.891 89.12 709.891 90.086C709.891 91.038 711.039 91.612 712.845 91.612ZM712.845 87.65C715.323 87.65 716.933 88.56 716.933 90.086C716.933 91.598 715.323 92.522 712.845 92.522C710.367 92.522 708.757 91.598 708.757 90.086C708.757 88.56 710.367 87.65 712.845 87.65ZM716.779 83.226H718.641V84.178H716.779V87.482H715.631V79.978H716.779V83.226ZM727.236 84.626L727.376 85.564C725.262 85.984 723.386 86.124 721.51 86.124H720.53V80.608H721.664V85.158C723.442 85.144 725.234 85.018 727.236 84.626ZM722.868 88.686V91.43H728.538V88.686H722.868ZM721.748 92.354V87.762H729.658V92.354H721.748ZM731.52 82.862V83.814H729.658V87.076H728.51V79.978H729.658V82.862H731.52ZM734.375 82.442V88.49C736.055 88.476 737.245 88.406 738.617 88.112L738.715 89.064C737.217 89.386 735.943 89.442 734.067 89.442H733.241V81.504H737.917V82.442H734.375ZM742.355 79.978H743.461V92.536H742.355V85.956H740.577V91.906H739.499V80.258H740.577V85.018H742.355V79.978ZM751.93 90.044H757.068V90.982H745.658V90.044H750.768V87.678H747.086V83.8H754.534V81.84H747.058V80.902H755.654V84.724H748.22V86.754H755.948V87.678H751.93V90.044ZM764.831 91.682C762.871 91.682 761.625 89.904 761.625 86.334C761.625 82.764 762.871 81.042 764.831 81.042C766.777 81.042 768.023 82.778 768.023 86.334C768.023 89.904 766.777 91.682 764.831 91.682ZM764.831 90.66C765.993 90.66 766.777 89.358 766.777 86.334C766.777 83.338 765.993 82.064 764.831 82.064C763.655 82.064 762.871 83.338 762.871 86.334C762.871 89.358 763.655 90.66 764.831 90.66ZM772.597 91.682C770.637 91.682 769.391 89.904 769.391 86.334C769.391 82.764 770.637 81.042 772.597 81.042C774.543 81.042 775.789 82.778 775.789 86.334C775.789 89.904 774.543 91.682 772.597 91.682ZM772.597 90.66C773.759 90.66 774.543 89.358 774.543 86.334C774.543 83.338 773.759 82.064 772.597 82.064C771.421 82.064 770.637 83.338 770.637 86.334C770.637 89.358 771.421 90.66 772.597 90.66ZM777.521 94.16L777.213 93.404C778.095 93.012 778.613 92.326 778.613 91.5C778.557 91.514 778.515 91.514 778.459 91.514C777.969 91.514 777.521 91.206 777.521 90.618C777.521 90.072 777.969 89.722 778.487 89.722C779.159 89.722 779.565 90.296 779.565 91.234C779.565 92.578 778.781 93.628 777.521 94.16ZM783.736 91.5L786.732 86.194L783.932 81.224H785.36L786.76 83.856C787.026 84.332 787.236 84.766 787.572 85.354H787.628C787.908 84.766 788.104 84.332 788.356 83.856L789.728 81.224H791.086L788.286 86.264L791.282 91.5H789.854L788.342 88.728C788.076 88.21 787.796 87.692 787.46 87.076H787.404C787.11 87.692 786.844 88.21 786.578 88.728L785.094 91.5H783.736ZM791.761 91.5L794.757 86.194L791.957 81.224H793.385L794.785 83.856C795.051 84.332 795.261 84.766 795.597 85.354H795.653C795.933 84.766 796.129 84.332 796.381 83.856L797.753 81.224H799.111L796.311 86.264L799.307 91.5H797.879L796.367 88.728C796.101 88.21 795.821 87.692 795.485 87.076H795.429C795.135 87.692 794.869 88.21 794.603 88.728L793.119 91.5H791.761ZM801.985 85.564V88.574C804.211 88.574 805.779 88.476 807.627 88.168L807.739 89.092C805.807 89.428 804.183 89.512 801.817 89.512H800.837V81.112H806.689V82.05H801.985V84.64H806.409V85.564H801.985ZM812.023 85.018V85.984H809.951V92.522H808.803V79.978H809.951V85.018H812.023ZM817.216 81.49C815.998 81.49 815.144 82.134 815.144 83.072C815.144 84.038 815.998 84.668 817.216 84.668C818.434 84.668 819.288 84.038 819.288 83.072C819.288 82.134 818.434 81.49 817.216 81.49ZM817.216 85.55C815.354 85.55 814.066 84.556 814.066 83.072C814.066 81.602 815.354 80.608 817.216 80.608C819.078 80.608 820.366 81.602 820.366 83.072C820.366 84.556 819.078 85.55 817.216 85.55ZM821.388 86.18L821.458 87.034C820.226 87.244 818.966 87.37 817.734 87.44V92.158H816.586V87.496C815.396 87.538 814.262 87.552 813.268 87.552L813.128 86.586C815.494 86.586 818.658 86.572 821.388 86.18ZM822.34 79.992H823.488V92.55H822.34V89.456H819.498V88.56H822.34V79.992ZM832.33 91.682C830.37 91.682 829.124 89.904 829.124 86.334C829.124 82.764 830.37 81.042 832.33 81.042C834.276 81.042 835.522 82.778 835.522 86.334C835.522 89.904 834.276 91.682 832.33 91.682ZM832.33 90.66C833.492 90.66 834.276 89.358 834.276 86.334C834.276 83.338 833.492 82.064 832.33 82.064C831.154 82.064 830.37 83.338 830.37 86.334C830.37 89.358 831.154 90.66 832.33 90.66ZM840.095 91.682C838.135 91.682 836.889 89.904 836.889 86.334C836.889 82.764 838.135 81.042 840.095 81.042C842.041 81.042 843.287 82.778 843.287 86.334C843.287 89.904 842.041 91.682 840.095 91.682ZM840.095 90.66C841.257 90.66 842.041 89.358 842.041 86.334C842.041 83.338 841.257 82.064 840.095 82.064C838.919 82.064 838.135 83.338 838.135 86.334C838.135 89.358 838.919 90.66 840.095 90.66ZM845.201 91.5V90.436H847.483V82.778H845.663V81.966C846.573 81.798 847.231 81.56 847.791 81.224H848.771V90.436H850.829V91.5H845.201ZM852.784 94.16L852.476 93.404C853.358 93.012 853.876 92.326 853.876 91.5C853.82 91.514 853.778 91.514 853.722 91.514C853.232 91.514 852.784 91.206 852.784 90.618C852.784 90.072 853.232 89.722 853.75 89.722C854.422 89.722 854.828 90.296 854.828 91.234C854.828 92.578 854.044 93.628 852.784 94.16ZM859.523 91.682C857.563 91.682 856.317 89.904 856.317 86.334C856.317 82.764 857.563 81.042 859.523 81.042C861.469 81.042 862.715 82.778 862.715 86.334C862.715 89.904 861.469 91.682 859.523 91.682ZM859.523 90.66C860.685 90.66 861.469 89.358 861.469 86.334C861.469 83.338 860.685 82.064 859.523 82.064C858.347 82.064 857.563 83.338 857.563 86.334C857.563 89.358 858.347 90.66 859.523 90.66ZM867.288 91.682C865.328 91.682 864.082 89.904 864.082 86.334C864.082 82.764 865.328 81.042 867.288 81.042C869.234 81.042 870.48 82.778 870.48 86.334C870.48 89.904 869.234 91.682 867.288 91.682ZM867.288 90.66C868.45 90.66 869.234 89.358 869.234 86.334C869.234 83.338 868.45 82.064 867.288 82.064C866.112 82.064 865.328 83.338 865.328 86.334C865.328 89.358 866.112 90.66 867.288 90.66ZM871.778 91.5V90.744C874.998 87.93 876.482 85.886 876.482 84.122C876.482 82.946 875.866 82.092 874.592 82.092C873.752 82.092 873.024 82.61 872.464 83.282L871.722 82.554C872.562 81.644 873.444 81.042 874.746 81.042C876.58 81.042 877.728 82.246 877.728 84.08C877.728 86.124 876.118 88.21 873.71 90.492C874.242 90.45 874.872 90.394 875.39 90.394H878.232V91.5H871.778ZM890.422 81.812V82.75H880.23V81.812H884.78V80.174H885.928V81.812H890.422ZM882.386 85.984C882.386 86.922 883.52 87.482 885.354 87.482C887.16 87.482 888.28 86.922 888.28 85.984C888.28 85.06 887.16 84.5 885.354 84.5C883.52 84.5 882.386 85.06 882.386 85.984ZM885.928 90.128H891.052V91.066H879.67V90.128H884.78V88.364C882.568 88.238 881.224 87.384 881.224 85.984C881.224 84.472 882.806 83.604 885.354 83.604C887.86 83.604 889.442 84.472 889.442 85.984C889.442 87.384 888.112 88.224 885.928 88.364V90.128ZM899.894 81.07V83.324C899.894 85.536 901.322 87.818 903.086 88.7L902.372 89.61C901.042 88.896 899.908 87.426 899.334 85.704C898.788 87.538 897.626 89.106 896.212 89.862L895.526 88.938C897.332 88.014 898.76 85.606 898.76 83.324V81.07H899.894ZM907.412 85.074V86.026H905.34V92.536H904.192V79.992H905.34V85.074H907.412ZM917.756 91.444V89.82H912.002V91.444H917.756ZM917.756 88.924V87.328H918.904V92.368H910.868V87.328H912.002V88.924H917.756ZM911.988 85.424C913.234 85.424 914.13 84.612 914.13 83.464C914.13 82.316 913.234 81.518 911.988 81.518C910.742 81.518 909.846 82.316 909.846 83.464C909.846 84.612 910.742 85.424 911.988 85.424ZM917.742 79.992H918.904V86.726H917.742V83.912H915.194C914.97 85.396 913.71 86.376 911.988 86.376C910.112 86.376 908.754 85.2 908.754 83.464C908.754 81.742 910.112 80.566 911.988 80.566C913.682 80.566 914.942 81.518 915.18 82.974H917.742V79.992ZM925.665 82.218V83.814C925.665 85.816 927.093 88.042 928.913 88.896L928.255 89.82C926.855 89.12 925.679 87.65 925.105 85.97C924.531 87.804 923.313 89.4 921.899 90.128L921.227 89.218C923.019 88.322 924.531 85.942 924.531 83.814V82.218H921.661V81.266H928.451V82.218H925.665ZM933.169 85.046V86.012H931.097V92.536H929.949V79.992H931.097V85.046H933.169ZM944.354 83.828V84.752H935.744V80.482H944.27V81.406H936.892V83.828H944.354ZM939.986 91.626C941.946 91.626 943.122 91.136 943.122 90.254C943.122 89.372 941.96 88.882 939.986 88.882C938.012 88.882 936.85 89.372 936.85 90.254C936.85 91.136 938.012 91.626 939.986 91.626ZM939.986 87.986C942.66 87.986 944.284 88.798 944.284 90.254C944.284 91.71 942.66 92.522 939.986 92.522C937.312 92.522 935.688 91.71 935.688 90.254C935.688 88.798 937.312 87.986 939.986 87.986ZM934.316 85.956H945.684V86.908H934.316V85.956ZM948.455 89.722V88.784H957.191V92.424H956.043V89.722H948.455ZM953.467 86.88H958.577V87.818H947.181V86.88H952.305V85.564H948.651V82.498H955.987V81.196H948.623V80.3H957.121V83.352H949.785V84.668H957.387V85.564H953.467V86.88ZM965.226 86.208V83.94H961.838V86.208H965.226ZM966.36 84.458V87.132H960.704V80.818H961.838V83.03H965.226V80.818H966.36V83.52H969.258V79.978H970.42V89.274H969.258V84.458H966.36ZM963.49 91.318H970.714V92.256H962.342V88.364H963.49V91.318ZM983.705 81.812V82.75H973.513V81.812H978.063V80.174H979.211V81.812H983.705ZM975.669 85.984C975.669 86.922 976.803 87.482 978.637 87.482C980.443 87.482 981.563 86.922 981.563 85.984C981.563 85.06 980.443 84.5 978.637 84.5C976.803 84.5 975.669 85.06 975.669 85.984ZM979.211 90.128H984.335V91.066H972.953V90.128H978.063V88.364C975.851 88.238 974.507 87.384 974.507 85.984C974.507 84.472 976.089 83.604 978.637 83.604C981.143 83.604 982.725 84.472 982.725 85.984C982.725 87.384 981.395 88.224 979.211 88.364V90.128ZM990.167 86.04C989.663 86.04 989.243 85.634 989.243 85.074C989.243 84.486 989.663 84.08 990.167 84.08C990.671 84.08 991.091 84.486 991.091 85.074C991.091 85.634 990.671 86.04 990.167 86.04ZM990.167 91.682C989.663 91.682 989.243 91.29 989.243 90.716C989.243 90.128 989.663 89.722 990.167 89.722C990.671 89.722 991.091 90.128 991.091 90.716C991.091 91.29 990.671 91.682 990.167 91.682ZM995.486 91.5L998.482 86.194L995.682 81.224H997.11L998.51 83.856C998.776 84.332 998.986 84.766 999.322 85.354H999.378C999.658 84.766 999.854 84.332 1000.11 83.856L1001.48 81.224H1002.84L1000.04 86.264L1003.03 91.5H1001.6L1000.09 88.728C999.826 88.21 999.546 87.692 999.21 87.076H999.154C998.86 87.692 998.594 88.21 998.328 88.728L996.844 91.5H995.486ZM1003.51 91.5L1006.51 86.194L1003.71 81.224H1005.14L1006.54 83.856C1006.8 84.332 1007.01 84.766 1007.35 85.354H1007.4C1007.68 84.766 1007.88 84.332 1008.13 83.856L1009.5 81.224H1010.86L1008.06 86.264L1011.06 91.5H1009.63L1008.12 88.728C1007.85 88.21 1007.57 87.692 1007.24 87.076H1007.18C1006.89 87.692 1006.62 88.21 1006.35 88.728L1004.87 91.5H1003.51ZM1011.54 91.5L1014.53 86.194L1011.73 81.224H1013.16L1014.56 83.856C1014.83 84.332 1015.04 84.766 1015.37 85.354H1015.43C1015.71 84.766 1015.9 84.332 1016.16 83.856L1017.53 81.224H1018.89L1016.09 86.264L1019.08 91.5H1017.65L1016.14 88.728C1015.88 88.21 1015.6 87.692 1015.26 87.076H1015.2C1014.91 87.692 1014.64 88.21 1014.38 88.728L1012.89 91.5H1011.54ZM1019.54 88.07V87.09H1023.13V88.07H1019.54ZM1023.57 91.5L1026.56 86.194L1023.76 81.224H1025.19L1026.59 83.856C1026.86 84.332 1027.07 84.766 1027.4 85.354H1027.46C1027.74 84.766 1027.94 84.332 1028.19 83.856L1029.56 81.224H1030.92L1028.12 86.264L1031.11 91.5H1029.69L1028.17 88.728C1027.91 88.21 1027.63 87.692 1027.29 87.076H1027.24C1026.94 87.692 1026.68 88.21 1026.41 88.728L1024.93 91.5H1023.57ZM1031.59 91.5L1034.59 86.194L1031.79 81.224H1033.22L1034.62 83.856C1034.88 84.332 1035.09 84.766 1035.43 85.354H1035.49C1035.77 84.766 1035.96 84.332 1036.21 83.856L1037.59 81.224H1038.94L1036.14 86.264L1039.14 91.5H1037.71L1036.2 88.728C1035.93 88.21 1035.65 87.692 1035.32 87.076H1035.26C1034.97 87.692 1034.7 88.21 1034.44 88.728L1032.95 91.5H1031.59ZM1039.6 88.07V87.09H1043.19V88.07H1039.6ZM1043.62 91.5L1046.62 86.194L1043.82 81.224H1045.25L1046.65 83.856C1046.91 84.332 1047.12 84.766 1047.46 85.354H1047.52C1047.8 84.766 1047.99 84.332 1048.24 83.856L1049.62 81.224H1050.97L1048.17 86.264L1051.17 91.5H1049.74L1048.23 88.728C1047.96 88.21 1047.68 87.692 1047.35 87.076H1047.29C1047 87.692 1046.73 88.21 1046.47 88.728L1044.98 91.5H1043.62ZM1051.65 91.5L1054.65 86.194L1051.85 81.224H1053.27L1054.67 83.856C1054.94 84.332 1055.15 84.766 1055.49 85.354H1055.54C1055.82 84.766 1056.02 84.332 1056.27 83.856L1057.64 81.224H1059L1056.2 86.264L1059.2 91.5H1057.77L1056.26 88.728C1055.99 88.21 1055.71 87.692 1055.37 87.076H1055.32C1055.02 87.692 1054.76 88.21 1054.49 88.728L1053.01 91.5H1051.65ZM1059.68 91.5L1062.67 86.194L1059.87 81.224H1061.3L1062.7 83.856C1062.97 84.332 1063.18 84.766 1063.51 85.354H1063.57C1063.85 84.766 1064.04 84.332 1064.3 83.856L1065.67 81.224H1067.03L1064.23 86.264L1067.22 91.5H1065.79L1064.28 88.728C1064.02 88.21 1063.74 87.692 1063.4 87.076H1063.34C1063.05 87.692 1062.78 88.21 1062.52 88.728L1061.03 91.5H1059.68ZM1067.7 91.5L1070.7 86.194L1067.9 81.224H1069.32L1070.72 83.856C1070.99 84.332 1071.2 84.766 1071.54 85.354H1071.59C1071.87 84.766 1072.07 84.332 1072.32 83.856L1073.69 81.224H1075.05L1072.25 86.264L1075.25 91.5H1073.82L1072.31 88.728C1072.04 88.21 1071.76 87.692 1071.42 87.076H1071.37C1071.07 87.692 1070.81 88.21 1070.54 88.728L1069.06 91.5H1067.7ZM1075.73 91.5L1078.72 86.194L1075.92 81.224H1077.35L1078.75 83.856C1079.02 84.332 1079.23 84.766 1079.56 85.354H1079.62C1079.9 84.766 1080.09 84.332 1080.35 83.856L1081.72 81.224H1083.08L1080.28 86.264L1083.27 91.5H1081.84L1080.33 88.728C1080.07 88.21 1079.79 87.692 1079.45 87.076H1079.39C1079.1 87.692 1078.83 88.21 1078.57 88.728L1077.08 91.5H1075.73ZM1083.75 91.5L1086.75 86.194L1083.95 81.224H1085.38L1086.78 83.856C1087.04 84.332 1087.25 84.766 1087.59 85.354H1087.64C1087.92 84.766 1088.12 84.332 1088.37 83.856L1089.74 81.224H1091.1L1088.3 86.264L1091.3 91.5H1089.87L1088.36 88.728C1088.09 88.21 1087.81 87.692 1087.48 87.076H1087.42C1087.13 87.692 1086.86 88.21 1086.59 88.728L1085.11 91.5H1083.75ZM1096.99 82.442V88.49C1098.67 88.476 1099.86 88.406 1101.24 88.112L1101.33 89.064C1099.84 89.386 1098.56 89.442 1096.69 89.442H1095.86V81.504H1100.54V82.442H1096.99ZM1104.97 79.978H1106.08V92.536H1104.97V85.956H1103.2V91.906H1102.12V80.258H1103.2V85.018H1104.97V79.978ZM1112.59 87.09V90.072H1115.32V87.09H1112.59ZM1112.39 82.064V86.166H1115.51V82.064H1112.39ZM1116.47 90.072H1119.67V91.01H1108.28V90.072H1111.44V87.09H1109.33V86.166H1111.24V82.064H1109.3V81.14H1118.61V82.064H1116.66V86.166H1118.59V87.09H1116.47V90.072ZM1125.5 86.04C1125 86.04 1124.58 85.634 1124.58 85.074C1124.58 84.486 1125 84.08 1125.5 84.08C1126.01 84.08 1126.43 84.486 1126.43 85.074C1126.43 85.634 1126.01 86.04 1125.5 86.04ZM1125.5 91.682C1125 91.682 1124.58 91.29 1124.58 90.716C1124.58 90.128 1125 89.722 1125.5 89.722C1126.01 89.722 1126.43 90.128 1126.43 90.716C1126.43 91.29 1126.01 91.682 1125.5 91.682ZM1130.82 91.5L1133.82 86.194L1131.02 81.224H1132.45L1133.85 83.856C1134.11 84.332 1134.32 84.766 1134.66 85.354H1134.72C1135 84.766 1135.19 84.332 1135.44 83.856L1136.82 81.224H1138.17L1135.37 86.264L1138.37 91.5H1136.94L1135.43 88.728C1135.16 88.21 1134.88 87.692 1134.55 87.076H1134.49C1134.2 87.692 1133.93 88.21 1133.67 88.728L1132.18 91.5H1130.82ZM1138.85 91.5L1141.85 86.194L1139.05 81.224H1140.47L1141.87 83.856C1142.14 84.332 1142.35 84.766 1142.69 85.354H1142.74C1143.02 84.766 1143.22 84.332 1143.47 83.856L1144.84 81.224H1146.2L1143.4 86.264L1146.4 91.5H1144.97L1143.46 88.728C1143.19 88.21 1142.91 87.692 1142.57 87.076H1142.52C1142.22 87.692 1141.96 88.21 1141.69 88.728L1140.21 91.5H1138.85ZM1146.87 91.5L1149.87 86.194L1147.07 81.224H1148.5L1149.9 83.856C1150.16 84.332 1150.37 84.766 1150.71 85.354H1150.77C1151.05 84.766 1151.24 84.332 1151.49 83.856L1152.87 81.224H1154.22L1151.42 86.264L1154.42 91.5H1152.99L1151.48 88.728C1151.21 88.21 1150.93 87.692 1150.6 87.076H1150.54C1150.25 87.692 1149.98 88.21 1149.72 88.728L1148.23 91.5H1146.87ZM602.278 112.682C599.73 112.682 597.812 110.708 597.812 107.376C597.812 104.058 599.758 102.042 602.362 102.042C603.608 102.042 604.588 102.658 605.176 103.316L604.476 104.156C603.944 103.582 603.258 103.176 602.376 103.176C600.43 103.176 599.142 104.772 599.142 107.334C599.142 109.924 600.374 111.548 602.334 111.548C603.314 111.548 604.056 111.114 604.714 110.4L605.428 111.212C604.616 112.15 603.608 112.682 602.278 112.682ZM610.671 112.682C608.095 112.682 606.289 110.624 606.289 107.334C606.289 104.044 608.095 102.042 610.671 102.042C613.247 102.042 615.053 104.044 615.053 107.334C615.053 110.624 613.247 112.682 610.671 112.682ZM610.671 111.548C612.505 111.548 613.723 109.896 613.723 107.334C613.723 104.758 612.505 103.176 610.671 103.176C608.823 103.176 607.619 104.758 607.619 107.334C607.619 109.896 608.823 111.548 610.671 111.548ZM617.267 112.5V102.224H620.207C622.503 102.224 624.043 103.008 624.043 105.248C624.043 107.418 622.517 108.426 620.263 108.426H618.569V112.5H617.267ZM618.569 107.376H620.095C621.901 107.376 622.755 106.718 622.755 105.248C622.755 103.764 621.845 103.288 620.039 103.288H618.569V107.376ZM627.629 112.5V108.51L624.548 102.224H625.935L627.251 105.136C627.587 105.892 627.895 106.606 628.258 107.376H628.315C628.678 106.606 629.029 105.892 629.337 105.136L630.667 102.224H632.011L628.931 108.51V112.5H627.629ZM633.4 112.5V102.224H636.62C638.706 102.224 640.204 102.98 640.204 105.122C640.204 106.718 639.28 107.67 637.88 108.006L640.512 112.5H639.042L636.55 108.146H634.702V112.5H633.4ZM634.702 107.096H636.424C638.034 107.096 638.916 106.452 638.916 105.122C638.916 103.764 638.034 103.288 636.424 103.288H634.702V107.096ZM642.3 112.5V102.224H643.602V112.5H642.3ZM650.434 112.682C647.746 112.682 645.814 110.708 645.814 107.376C645.814 104.058 647.802 102.042 650.518 102.042C651.946 102.042 652.884 102.686 653.472 103.316L652.772 104.156C652.254 103.61 651.596 103.176 650.546 103.176C648.488 103.176 647.144 104.772 647.144 107.334C647.144 109.924 648.362 111.548 650.574 111.548C651.302 111.548 652.016 111.324 652.422 110.946V108.258H650.252V107.18H653.612V111.492C652.954 112.178 651.82 112.682 650.434 112.682ZM656.054 112.5V102.224H657.356V106.536H662.144V102.224H663.432V112.5H662.144V107.656H657.356V112.5H656.054ZM668.382 112.5V103.33H665.274V102.224H672.792V103.33H669.684V112.5H668.382ZM683.352 113.704C679.754 113.704 676.828 110.778 676.828 107.18C676.828 103.582 679.754 100.656 683.352 100.656C686.95 100.656 689.876 103.582 689.876 107.18C689.876 110.806 686.922 113.704 683.352 113.704ZM683.352 113.256C686.712 113.256 689.428 110.54 689.428 107.18C689.428 103.82 686.712 101.104 683.352 101.104C679.964 101.104 677.276 103.848 677.276 107.18C677.276 110.54 679.992 113.256 683.352 113.256ZM683.604 109.91C682.204 109.91 681.182 108.944 681.182 107.25C681.182 105.598 682.344 104.618 683.646 104.618C684.374 104.618 684.864 104.898 685.186 105.164L684.71 105.808C684.402 105.556 684.136 105.43 683.688 105.43C682.834 105.43 682.204 106.186 682.204 107.25C682.204 108.342 682.806 109.084 683.702 109.084C684.22 109.084 684.57 108.902 684.85 108.664L685.256 109.308C684.906 109.602 684.388 109.91 683.604 109.91ZM694.882 112.5V102.224H700.804V103.33H696.184V106.55H700.076V107.656H696.184V111.394H700.958V112.5H694.882ZM706.753 112.682C704.667 112.682 703.071 111.562 703.071 108.258V102.224H704.373V108.3C704.373 110.778 705.423 111.548 706.753 111.548C708.125 111.548 709.203 110.778 709.203 108.3V102.224H710.449V108.258C710.449 111.562 708.853 112.682 706.753 112.682ZM713.203 112.5V102.224H716.423C718.509 102.224 720.007 102.98 720.007 105.122C720.007 106.718 719.083 107.67 717.683 108.006L720.315 112.5H718.845L716.353 108.146H714.505V112.5H713.203ZM714.505 107.096H716.227C717.837 107.096 718.719 106.452 718.719 105.122C718.719 103.764 717.837 103.288 716.227 103.288H714.505V107.096ZM725.897 112.682C723.321 112.682 721.515 110.624 721.515 107.334C721.515 104.044 723.321 102.042 725.897 102.042C728.473 102.042 730.279 104.044 730.279 107.334C730.279 110.624 728.473 112.682 725.897 112.682ZM725.897 111.548C727.731 111.548 728.949 109.896 728.949 107.334C728.949 104.758 727.731 103.176 725.897 103.176C724.049 103.176 722.845 104.758 722.845 107.334C722.845 109.896 724.049 111.548 725.897 111.548ZM732.494 112.5V102.224H735.546C737.632 102.224 739.074 102.938 739.074 104.744C739.074 105.766 738.528 106.662 737.576 106.97V107.04C738.794 107.278 739.662 108.09 739.662 109.49C739.662 111.506 738.066 112.5 735.77 112.5H732.494ZM733.796 106.606H735.322C737.086 106.606 737.8 105.948 737.8 104.912C737.8 103.708 736.974 103.26 735.378 103.26H733.796V106.606ZM733.796 111.464H735.588C737.352 111.464 738.388 110.834 738.388 109.448C738.388 108.174 737.38 107.586 735.588 107.586H733.796V111.464ZM741.695 112.5V102.224H742.997V112.5H741.695ZM745.796 112.5V102.224H747.098V107.39H747.14L751.424 102.224H752.88L749.674 106.144L753.384 112.5H751.942L748.862 107.152L747.098 109.252V112.5H745.796ZM754.847 112.5V102.224H760.769V103.33H756.149V106.55H760.041V107.656H756.149V111.394H760.923V112.5H754.847ZM765.22 112.5V103.33H762.112V102.224H769.63V103.33H766.522V112.5H765.22ZM774.87 112.682C772.294 112.682 770.488 110.624 770.488 107.334C770.488 104.044 772.294 102.042 774.87 102.042C777.446 102.042 779.252 104.044 779.252 107.334C779.252 110.624 777.446 112.682 774.87 112.682ZM774.87 111.548C776.704 111.548 777.922 109.896 777.922 107.334C777.922 104.758 776.704 103.176 774.87 103.176C773.022 103.176 771.818 104.758 771.818 107.334C771.818 109.896 773.022 111.548 774.87 111.548ZM785.106 112.682C783.02 112.682 781.424 111.562 781.424 108.258V102.224H782.726V108.3C782.726 110.778 783.776 111.548 785.106 111.548C786.478 111.548 787.556 110.778 787.556 108.3V102.224H788.802V108.258C788.802 111.562 787.206 112.682 785.106 112.682ZM791.556 112.5V102.224H794.776C796.862 102.224 798.36 102.98 798.36 105.122C798.36 106.718 797.436 107.67 796.036 108.006L798.668 112.5H797.198L794.706 108.146H792.858V112.5H791.556ZM792.858 107.096H794.58C796.19 107.096 797.072 106.452 797.072 105.122C797.072 103.764 796.19 103.288 794.58 103.288H792.858V107.096ZM801.003 112.682C800.499 112.682 800.079 112.29 800.079 111.716C800.079 111.128 800.499 110.722 801.003 110.722C801.507 110.722 801.927 111.128 801.927 111.716C801.927 112.29 801.507 112.682 801.003 112.682ZM804.353 112.5V102.224H805.655V107.39H805.697L809.981 102.224H811.437L808.231 106.144L811.941 112.5H810.499L807.419 107.152L805.655 109.252V112.5H804.353ZM813.404 112.5V102.224H816.624C818.71 102.224 820.208 102.98 820.208 105.122C820.208 106.718 819.284 107.67 817.884 108.006L820.516 112.5H819.046L816.554 108.146H814.706V112.5H813.404ZM814.706 107.096H816.428C818.038 107.096 818.92 106.452 818.92 105.122C818.92 103.764 818.038 103.288 816.428 103.288H814.706V107.096ZM822.85 112.682C822.346 112.682 821.926 112.29 821.926 111.716C821.926 111.128 822.346 110.722 822.85 110.722C823.354 110.722 823.774 111.128 823.774 111.716C823.774 112.29 823.354 112.682 822.85 112.682ZM831.11 106.76L830.606 108.328H833.714L833.224 106.76C832.846 105.598 832.524 104.478 832.188 103.288H832.132C831.81 104.492 831.474 105.598 831.11 106.76ZM827.974 112.5L831.46 102.224H832.902L836.388 112.5H835.016L834.036 109.364H830.284L829.29 112.5H827.974ZM839.068 112.682C838.116 112.682 837.724 112.066 837.724 110.988V101.356H838.998V111.072C838.998 111.464 839.166 111.618 839.362 111.618C839.432 111.618 839.488 111.618 839.628 111.59L839.81 112.57C839.628 112.64 839.418 112.682 839.068 112.682ZM843.06 112.682C842.108 112.682 841.716 112.066 841.716 110.988V101.356H842.99V111.072C842.99 111.464 843.158 111.618 843.354 111.618C843.424 111.618 843.48 111.618 843.62 111.59L843.802 112.57C843.62 112.64 843.41 112.682 843.06 112.682ZM848.839 112.5V104.898H849.889L850.001 106.284H850.043C850.575 105.318 851.345 104.702 852.199 104.702C852.535 104.702 852.773 104.744 853.011 104.87L852.773 105.99C852.521 105.892 852.339 105.864 852.031 105.864C851.401 105.864 850.617 106.312 850.113 107.614V112.5H848.839ZM854.267 112.5V104.898H855.541V112.5H854.267ZM854.911 103.33C854.407 103.33 854.057 102.994 854.057 102.476C854.057 101.986 854.407 101.65 854.911 101.65C855.415 101.65 855.765 101.986 855.765 102.476C855.765 102.994 855.415 103.33 854.911 103.33ZM860.684 116C858.822 116 857.548 115.272 857.548 113.956C857.548 113.312 857.954 112.696 858.668 112.234V112.178C858.262 111.94 857.968 111.534 857.968 110.932C857.968 110.302 858.43 109.798 858.822 109.518V109.462C858.318 109.056 857.828 108.328 857.828 107.418C857.828 105.752 859.144 104.702 860.684 104.702C861.104 104.702 861.482 104.8 861.748 104.898H864.394V105.878H862.84C863.204 106.228 863.456 106.788 863.456 107.446C863.456 109.07 862.224 110.092 860.684 110.092C860.306 110.092 859.886 109.994 859.55 109.826C859.27 110.064 859.06 110.316 859.06 110.736C859.06 111.226 859.368 111.562 860.39 111.562H861.874C863.638 111.562 864.534 112.122 864.534 113.368C864.534 114.782 863.036 116 860.684 116ZM860.684 109.224C861.552 109.224 862.308 108.524 862.308 107.418C862.308 106.312 861.58 105.64 860.684 105.64C859.788 105.64 859.06 106.298 859.06 107.418C859.06 108.524 859.802 109.224 860.684 109.224ZM860.866 115.132C862.322 115.132 863.288 114.362 863.288 113.564C863.288 112.864 862.742 112.626 861.734 112.626H860.418C860.138 112.626 859.774 112.584 859.438 112.5C858.892 112.892 858.668 113.34 858.668 113.788C858.668 114.6 859.494 115.132 860.866 115.132ZM866.011 112.5V101.356H867.285V104.408L867.243 105.976C867.943 105.276 868.727 104.702 869.763 104.702C871.359 104.702 872.087 105.738 872.087 107.684V112.5H870.813V107.852C870.813 106.424 870.379 105.822 869.371 105.822C868.587 105.822 868.055 106.214 867.285 106.984V112.5H866.011ZM876.909 112.682C875.285 112.682 874.739 111.66 874.739 110.148V105.934H873.605V104.968L874.795 104.898L874.949 102.756H876.013V104.898H878.071V105.934H876.013V110.176C876.013 111.114 876.307 111.646 877.189 111.646C877.455 111.646 877.805 111.548 878.057 111.45L878.309 112.402C877.875 112.542 877.371 112.682 876.909 112.682ZM881.63 112.682C880.552 112.682 879.516 112.234 878.788 111.632L879.418 110.792C880.076 111.324 880.762 111.688 881.672 111.688C882.68 111.688 883.17 111.156 883.17 110.498C883.17 109.714 882.274 109.378 881.434 109.056C880.37 108.664 879.208 108.146 879.208 106.858C879.208 105.654 880.188 104.702 881.84 104.702C882.778 104.702 883.604 105.094 884.192 105.556L883.576 106.382C883.058 105.99 882.526 105.71 881.854 105.71C880.888 105.71 880.44 106.214 880.44 106.802C880.44 107.53 881.224 107.796 882.078 108.118C883.184 108.538 884.402 108.986 884.402 110.428C884.402 111.66 883.422 112.682 881.63 112.682ZM889.321 112.5V104.898H890.371L890.483 106.284H890.525C891.057 105.318 891.827 104.702 892.681 104.702C893.017 104.702 893.255 104.744 893.493 104.87L893.255 105.99C893.003 105.892 892.821 105.864 892.513 105.864C891.883 105.864 891.099 106.312 890.595 107.614V112.5H889.321ZM897.665 112.682C895.649 112.682 894.025 111.212 894.025 108.706C894.025 106.242 895.691 104.702 897.455 104.702C899.387 104.702 900.479 106.102 900.479 108.272C900.479 108.552 900.451 108.818 900.423 109H895.299C895.383 110.624 896.377 111.66 897.819 111.66C898.561 111.66 899.163 111.436 899.723 111.058L900.185 111.898C899.513 112.332 898.701 112.682 897.665 112.682ZM895.285 108.076H899.359C899.359 106.55 898.659 105.724 897.469 105.724C896.391 105.724 895.439 106.592 895.285 108.076ZM904.339 112.682C903.261 112.682 902.225 112.234 901.497 111.632L902.127 110.792C902.785 111.324 903.471 111.688 904.381 111.688C905.389 111.688 905.879 111.156 905.879 110.498C905.879 109.714 904.983 109.378 904.143 109.056C903.079 108.664 901.917 108.146 901.917 106.858C901.917 105.654 902.897 104.702 904.549 104.702C905.487 104.702 906.313 105.094 906.901 105.556L906.285 106.382C905.767 105.99 905.235 105.71 904.562 105.71C903.597 105.71 903.149 106.214 903.149 106.802C903.149 107.53 903.933 107.796 904.787 108.118C905.893 108.538 907.111 108.986 907.111 110.428C907.111 111.66 906.131 112.682 904.339 112.682ZM911.965 112.682C909.949 112.682 908.325 111.212 908.325 108.706C908.325 106.242 909.991 104.702 911.755 104.702C913.687 104.702 914.779 106.102 914.779 108.272C914.779 108.552 914.751 108.818 914.723 109H909.599C909.683 110.624 910.677 111.66 912.119 111.66C912.861 111.66 913.463 111.436 914.023 111.058L914.485 111.898C913.813 112.332 913.001 112.682 911.965 112.682ZM909.585 108.076H913.659C913.659 106.55 912.959 105.724 911.769 105.724C910.691 105.724 909.739 106.592 909.585 108.076ZM916.651 112.5V104.898H917.701L917.813 106.284H917.855C918.387 105.318 919.157 104.702 920.011 104.702C920.347 104.702 920.585 104.744 920.823 104.87L920.585 105.99C920.333 105.892 920.151 105.864 919.843 105.864C919.213 105.864 918.429 106.312 917.925 107.614V112.5H916.651ZM924.127 112.5L921.383 104.898H922.713L924.141 109.224C924.379 109.966 924.617 110.75 924.855 111.464H924.911C925.149 110.75 925.387 109.966 925.611 109.224L927.053 104.898H928.313L925.611 112.5H924.127ZM932.801 112.682C930.785 112.682 929.161 111.212 929.161 108.706C929.161 106.242 930.827 104.702 932.591 104.702C934.523 104.702 935.615 106.102 935.615 108.272C935.615 108.552 935.587 108.818 935.559 109H930.435C930.519 110.624 931.513 111.66 932.955 111.66C933.697 111.66 934.299 111.436 934.859 111.058L935.321 111.898C934.649 112.332 933.837 112.682 932.801 112.682ZM930.421 108.076H934.495C934.495 106.55 933.795 105.724 932.605 105.724C931.527 105.724 930.575 106.592 930.421 108.076ZM940.077 112.682C938.173 112.682 936.941 111.24 936.941 108.706C936.941 106.242 938.495 104.702 940.231 104.702C941.127 104.702 941.701 105.038 942.373 105.598L942.317 104.282V101.356H943.577V112.5H942.541L942.429 111.604H942.387C941.785 112.192 940.987 112.682 940.077 112.682ZM940.357 111.618C941.057 111.618 941.673 111.268 942.317 110.568V106.578C941.659 106.004 941.085 105.78 940.455 105.78C939.223 105.78 938.257 106.956 938.257 108.692C938.257 110.526 939.013 111.618 940.357 111.618ZM946.827 112.682C946.323 112.682 945.903 112.29 945.903 111.716C945.903 111.128 946.323 110.722 946.827 110.722C947.331 110.722 947.751 111.128 947.751 111.716C947.751 112.29 947.331 112.682 946.827 112.682Z" fill="#999999"/>
<path d="M1324 100C1335.05 100 1344 91.0456 1344 80C1344 68.9543 1335.05 60 1324 60C1312.95 60 1304 68.9543 1304 80C1304 91.0456 1312.95 100 1324 100Z" fill="#999999"/>
<path d="M1329.77 68.7505V71.9265H1327.48C1327.07 71.9265 1326.4 72.0709 1326.13 72.3485C1325.87 72.6261 1325.73 73.0148 1325.73 73.5145V76.313H1329.77L1329.44 79.489H1325.73V91.2491H1321.8V79.489H1318.21V76.313H1321.8V73.037C1321.8 71.8043 1321.89 70.7827 1322.72 69.972C1323.56 69.1614 1324.7 68.7616 1326.14 68.7616H1329.77V68.7505Z" fill="#333333"/>
<path d="M1379 100C1390.05 100 1399 91.0457 1399 80C1399 68.9543 1390.05 60 1379 60C1367.95 60 1359 68.9543 1359 80C1359 91.0457 1367.95 100 1379 100Z" fill="#999999"/>
<path d="M1389.42 69.0635H1368.88C1368.03 69.0635 1367.32 69.7615 1367.32 70.6258V90.4818C1367.32 91.335 1368.02 92.0441 1368.88 92.0441H1389.42C1390.27 92.0441 1390.98 91.346 1390.98 90.4818V70.6258C1390.97 69.7726 1390.27 69.0635 1389.42 69.0635ZM1379.14 75.7338C1381.8 75.7338 1383.96 77.8945 1383.96 80.5538C1383.96 83.2131 1381.8 85.3737 1379.14 85.3737C1376.48 85.3737 1374.32 83.2131 1374.32 80.5538C1374.32 77.8945 1376.48 75.7338 1379.14 75.7338ZM1388.63 89.8059C1388.63 90.0607 1388.42 90.2823 1388.15 90.2823H1370.12C1369.87 90.2823 1369.65 90.0718 1369.65 89.8059V79.6341C1369.65 79.3793 1369.86 79.1577 1370.12 79.1577H1372.37C1372.29 79.6009 1372.23 80.0663 1372.23 80.5427C1372.23 84.3543 1375.32 87.4568 1379.14 87.4568C1382.96 87.4568 1386.06 84.3654 1386.06 80.5427C1386.06 80.0663 1386.01 79.6009 1385.91 79.1577H1388.16C1388.42 79.1577 1388.64 79.3682 1388.64 79.6341V89.8059H1388.63ZM1388.63 75.5455C1388.63 75.8114 1388.42 76.0219 1388.15 76.0219H1384.22C1383.95 76.0219 1383.74 75.8114 1383.74 75.5455V71.7449C1383.74 71.479 1383.95 71.2685 1384.22 71.2685H1388.15C1388.42 71.2685 1388.63 71.479 1388.63 71.7449V75.5455Z" fill="#333333"/>
<path d="M1434 100C1445.05 100 1454 91.0457 1454 80C1454 68.9543 1445.05 60 1434 60C1422.95 60 1414 68.9543 1414 80C1414 91.0457 1422.95 100 1434 100Z" fill="#999999"/>
<path d="M1441.38 88.177H1426.61C1424.28 88.177 1422.39 86.2712 1422.39 83.9554V76.0551C1422.39 73.7282 1424.29 71.8335 1426.61 71.8335H1441.38C1443.71 71.8335 1445.6 73.7393 1445.6 76.0551V83.9554C1445.6 86.2712 1443.71 88.177 1441.38 88.177Z" fill="#333333"/>
<path d="M1431.52 75.457L1438.44 79.8338L1431.52 84.2216V75.457Z" fill="#999999"/>
</svg>
