<svg width="1728" height="250" viewBox="0 0 1728 250" fill="none" xmlns="http://www.w3.org/2000/svg">
<rect width="1728" height="250" fill="#5A4E47"/>
<path d="M397.313 143.82H388.625V112.284H381.713V104.7H397.313V143.82ZM419.951 103.644C422.863 103.644 425.439 104.428 427.679 105.996C429.951 107.532 431.727 109.852 433.007 112.956C434.287 116.028 434.927 119.788 434.927 124.236C434.927 128.684 434.287 132.444 433.007 135.516C431.727 138.588 429.951 140.892 427.679 142.428C425.439 143.996 422.863 144.78 419.951 144.78C417.039 144.78 414.447 143.996 412.175 142.428C409.935 140.892 408.175 138.588 406.895 135.516C405.615 132.444 404.975 128.684 404.975 124.236C404.975 119.788 405.615 116.028 406.895 112.956C408.175 109.852 409.935 107.532 412.175 105.996C414.447 104.428 417.039 103.644 419.951 103.644ZM419.951 111.276C417.935 111.276 416.303 112.364 415.055 114.54C413.839 116.716 413.231 119.948 413.231 124.236C413.231 128.492 413.839 131.708 415.055 133.884C416.303 136.06 417.935 137.148 419.951 137.148C421.967 137.148 423.583 136.06 424.799 133.884C426.047 131.708 426.671 128.492 426.671 124.236C426.671 119.948 426.047 116.716 424.799 114.54C423.583 112.364 421.967 111.276 419.951 111.276ZM459.988 123.084C457.748 125.42 454.916 127.244 451.492 128.556C448.068 129.836 444.388 130.476 440.452 130.476V123.036C443.876 123.036 446.996 122.268 449.812 120.732C452.628 119.196 454.532 117.148 455.524 114.588H441.316V107.148H455.716V102.972H464.068V107.148H478.564V114.588H464.404C464.276 115.26 464.068 116.044 463.78 116.94L480.196 123.996L476.836 130.668L459.988 123.084ZM480.676 135.564V143.052H439.204V135.564H455.86V128.508H464.02V135.564H480.676ZM517.247 123.996H512.879V116.844H517.247V113.628H512.879V106.476H517.247V103.5H525.215V133.884H517.247V123.996ZM510.959 127.308H486.527V103.98H510.959V127.308ZM502.991 110.844H494.495V120.444H502.991V110.844ZM525.791 137.244V144.492H488.543V130.14H496.799V137.244H525.791ZM564.44 116.748C562.168 117.964 559.448 118.924 556.28 119.628C553.144 120.3 549.848 120.652 546.392 120.684V114.636C549.496 114.572 552.456 114.22 555.272 113.58C558.12 112.908 560.152 112.06 561.368 111.036H547.112V105.036H561.608V101.868H569.864V105.036H584.36V111.036H570.296C570.232 111.228 570.104 111.516 569.912 111.9L585.32 114.972L583.64 120.876L564.44 116.748ZM569.864 128.028V130.092C579.592 130.636 584.456 133.1 584.456 137.484C584.456 140.14 582.808 142.044 579.512 143.196C576.248 144.38 571.656 144.972 565.736 144.972C553.256 144.972 547.016 142.476 547.016 137.484C547.016 133.1 551.88 130.636 561.608 130.092V128.028H545V121.932H586.472V128.028H569.864ZM575.864 137.484C575.864 136.396 572.488 135.852 565.736 135.852C558.984 135.852 555.608 136.396 555.608 137.484C555.608 138.06 556.488 138.476 558.248 138.732C560.008 138.988 562.504 139.116 565.736 139.116C568.968 139.116 571.464 138.988 573.224 138.732C574.984 138.476 575.864 138.06 575.864 137.484ZM630.148 121.692H593.668V103.5H601.588V106.572H622.228V103.5H630.148V121.692ZM622.228 115.596V112.524H601.588V115.596H622.228ZM632.644 124.044V130.668H615.988V135.564H607.828V130.668H591.172V124.044H632.644ZM601.828 137.82H630.724V144.492H593.572V132.972H601.828V137.82ZM664.992 112.62H636.96V106.284H646.848V102.78H655.104V106.284H664.992V112.62ZM680.64 113.004V120.876H675.84V134.076H667.728V103.5H675.84V113.004H680.64ZM650.976 130.668C648.64 130.668 646.512 130.348 644.592 129.708C642.704 129.068 641.2 128.108 640.08 126.828C638.96 125.548 638.4 124.012 638.4 122.22C638.4 120.428 638.96 118.892 640.08 117.612C641.2 116.332 642.704 115.372 644.592 114.732C646.512 114.092 648.64 113.772 650.976 113.772C653.312 113.772 655.424 114.092 657.312 114.732C659.232 115.372 660.752 116.332 661.872 117.612C662.992 118.892 663.552 120.428 663.552 122.22C663.552 124.012 662.992 125.548 661.872 126.828C660.752 128.108 659.232 129.068 657.312 129.708C655.424 130.348 653.312 130.668 650.976 130.668ZM650.976 119.628C649.536 119.628 648.368 119.884 647.472 120.396C646.576 120.876 646.128 121.484 646.128 122.22C646.128 122.956 646.576 123.58 647.472 124.092C648.368 124.572 649.536 124.812 650.976 124.812C652.416 124.812 653.584 124.572 654.48 124.092C655.376 123.58 655.824 122.956 655.824 122.22C655.824 121.484 655.376 120.876 654.48 120.396C653.584 119.884 652.416 119.628 650.976 119.628ZM647.904 137.436H676.416V144.492H639.648V131.868H647.904V137.436ZM740.265 126.348H736.425V144.492H729.561V103.5H736.425V118.476H740.265V126.348ZM705.801 104.46H711.657V142.572H697.497V104.46H703.785V116.892H705.801V104.46ZM720.969 104.46H727.257V142.572H713.097V104.46H718.953V116.892H720.969V104.46ZM705.801 135.564V123.9H703.785V135.564H705.801ZM720.969 135.564V123.9H718.953V135.564H720.969ZM782.117 116.076H753.653V118.092H782.549V123.612H745.685V111.084H774.149V109.02H745.589V103.5H782.117V116.076ZM784.613 131.916H743.141V125.58H784.613V131.916ZM753.797 138.06H782.693V144.492H745.541V133.836H753.797V138.06ZM834.59 125.292H828.254V118.092H834.59V114.876H829.838V107.676H834.59V103.5H842.606V133.884H834.59V125.292ZM827.918 110.556C827.918 114.428 826.878 117.676 824.798 120.3C822.75 122.924 819.902 124.892 816.254 126.204C812.638 127.484 808.462 128.124 803.726 128.124V120.972C806.862 120.94 809.63 120.556 812.03 119.82C814.43 119.052 816.302 117.996 817.646 116.652C818.99 115.308 819.662 113.724 819.662 111.9V110.988H803.726V103.98H827.918V110.556ZM843.182 137.244V144.492H805.934V130.14H814.19V137.244H843.182ZM888.73 103.5V128.364H880.618V118.956H875.194V111.996H880.618V103.5H888.73ZM863.482 120.732C861.818 122.844 859.802 124.54 857.434 125.82C855.066 127.068 852.474 127.724 849.658 127.788V120.492C851.418 120.364 852.986 119.852 854.362 118.956C855.738 118.028 856.842 116.844 857.674 115.404C858.538 113.964 859.082 112.428 859.306 110.796H850.234V103.98H876.346V110.796H867.514C867.418 112.012 867.178 113.228 866.794 114.444L877.978 121.596L873.706 127.452L863.482 120.732ZM851.866 129.804H888.73V144.972H880.474V136.764H851.866V129.804ZM948.403 103.5V144.492H940.291V124.332H931.651V116.748H940.291V103.5H948.403ZM927.235 104.604C927.235 110.044 926.851 114.972 926.083 119.388L937.987 138.204L931.027 142.524L923.299 129.564C921.635 133.724 919.539 136.924 917.011 139.164C914.483 141.404 911.667 142.54 908.563 142.572V134.124C910.643 133.9 912.467 132.508 914.035 129.948C915.603 127.356 916.819 123.852 917.683 119.436C918.547 115.02 918.979 109.98 918.979 104.316L927.235 104.604ZM994.335 103.5V144.492H986.223V103.5H994.335ZM972.879 104.46H980.847V142.572H956.559V104.46H964.527V116.508H972.879V104.46ZM972.879 135.132V123.9H964.527V135.132H972.879ZM1021.35 119.1C1018.92 122.364 1015.99 124.94 1012.57 126.828C1009.18 128.684 1005.56 129.628 1001.72 129.66V121.98C1004.44 121.98 1007.02 121.196 1009.45 119.628C1011.91 118.028 1013.99 115.82 1015.69 113.004C1017.39 110.156 1018.47 106.94 1018.95 103.356L1027.21 104.652C1026.83 107.468 1026.07 110.172 1024.95 112.764L1042.43 123.276L1038.15 129.852L1021.35 119.1ZM1000.91 135.468H1042.38V143.052H1000.91V135.468Z" fill="white"/>
<rect x="1188" y="105" width="160" height="40" rx="5" fill="white"/>
<path d="M1230.85 128.824V125.152H1227.52V128.824H1230.85ZM1230.85 123.298V119.284H1233.21V130.714H1225.16V119.284H1227.52V123.298H1230.85ZM1240.05 124.144V126.124H1237.63V134.548H1235.26V117.988H1237.63V124.144H1240.05ZM1249.89 130.786H1256.23V132.73H1241.22V130.786H1247.52V128.32H1242.94V122.704H1252.2V120.922H1242.93V119.032H1254.54V124.558H1245.3V126.412H1254.91V128.32H1249.89V130.786ZM1258.53 119.662H1266.34C1266.34 124.63 1264.45 128.896 1258.94 131.686L1257.61 129.868C1261.46 127.888 1263.52 125.26 1263.95 121.588H1258.53V119.662ZM1273.07 124.288V126.25H1270.75V134.512H1268.38V117.952H1270.75V124.288H1273.07ZM1275.25 119.68H1283.21C1283.21 124.756 1281.5 128.896 1275.61 131.74L1274.37 129.868C1278.6 127.834 1280.43 125.242 1280.78 121.57H1275.25V119.68ZM1285.74 117.952H1288.14V134.53H1285.74V117.952Z" fill="#5A4E47"/>
<path d="M1319.5 120.5L1324 125L1319.5 129.5" stroke="#5A4E47" stroke-width="2" stroke-linecap="round" stroke-linejoin="round"/>
</svg>
